<?xml version="1.0" encoding="UTF-8"?>
<svg version="1.1" xmlns="http://www.w3.org/2000/svg" width="967" height="178">
<path d="M0 0 C16.25446864 13.83792009 26.62225912 33.2649756 28.77734375 54.55078125 C30.58195584 77.05309691 24.93506723 97.95222825 10.87109375 115.75 C0.07736829 128.18304554 -11.90021244 136.54406677 -27.44140625 141.8125 C-28.30805908 142.10721191 -29.17471191 142.40192383 -30.06762695 142.70556641 C-51.28868251 149.48325623 -73.25391819 145.69499434 -92.9765625 136.34765625 C-111.48997405 126.371391 -125.53324273 108.85039645 -132.109375 88.98046875 C-138.7695676 66.40313716 -136.79055105 43.72649943 -125.75390625 22.875 C-113.9041443 2.75224757 -95.16278611 -11.11801231 -72.75390625 -17.125 C-46.19924697 -23.00561659 -21.27150149 -16.41375434 0 0 Z M-99.75 25.09765625 C-111.49958566 39.42457038 -114.00687567 54.8506325 -112.75390625 72.875 C-110.79431865 88.69293231 -101.40548437 101.77317668 -89.31640625 111.6875 C-74.77909974 122.37669596 -58.19262822 124.84876618 -40.58203125 122.44140625 C-37.84007472 121.78836631 -35.36285245 120.94229617 -32.75390625 119.875 C-31.64789063 119.42253906 -30.541875 118.97007812 -29.40234375 118.50390625 C-13.35533456 111.21457855 -2.60521988 99.52580904 3.68359375 82.875 C8.8356495 67.7191768 7.03809369 51.52372012 1.03125 36.921875 C-6.67452087 21.28697759 -19.7835799 11.76571076 -35.80859375 5.8203125 C-59.38913244 -1.74797711 -83.64967623 7.16989847 -99.75 25.09765625 Z " fill="#393939" transform="translate(259.75390625,22.125)"/>
<path d="M0 0 C21.78 0 43.56 0 66 0 C86 20 86 20 88.19921875 30.859375 C88.14939932 33.57892969 88.09926053 36.30146902 87.89331055 39.01367188 C87.68399752 41.79656679 87.62667286 44.55367133 87.59179688 47.34375 C87.18031349 61.74422112 87.18031349 61.74422112 82.39453125 67.265625 C80.47192383 68.96191406 80.47192383 68.96191406 79 70 C79.8971875 70.4021875 79.8971875 70.4021875 80.8125 70.8125 C83.05024682 72.02727685 84.36689552 73.06014392 86 75 C86.96153629 80.66824749 87.15460918 86.33095644 87.32495117 92.07202148 C87.39887222 93.95404169 87.5138764 95.83498192 87.67358398 97.71166992 C88.27957594 104.92778366 87.41021008 109.44052469 86 117 C79.4 123.6 72.8 130.2 66 137 C44.22 137 22.44 137 0 137 C0 91.79 0 46.58 0 0 Z M27 27 C27 36.24 27 45.48 27 55 C37.56 55 48.12 55 59 55 C59 45.76 59 36.52 59 27 C48.44 27 37.88 27 27 27 Z M27 82 C27 91.24 27 100.48 27 110 C37.56 110 48.12 110 59 110 C59 100.76 59 91.52 59 82 C48.44 82 37.88 82 27 82 Z " fill="#383838" transform="translate(303,17)"/>
<path d="M0 0 C21.78 0 43.56 0 66 0 C86.25326665 20.25326665 86.25326665 20.25326665 86.4050293 37.85620117 C86.42657592 39.73496927 86.46063934 41.61363788 86.50756836 43.49194336 C86.57477716 46.2073223 86.6020635 48.92062387 86.62109375 51.63671875 C86.64892441 52.46926682 86.67675507 53.30181488 86.70542908 54.15959167 C86.68542352 59.88361363 85.28942483 62.69813855 81.29066467 66.79792786 C80.86474533 67.19461166 80.43882599 67.59129547 80 68 C81.09123906 70.54622446 82.00392756 72.00350612 84.09661865 73.87164307 C86.62572091 76.69967978 86.48513008 78.29926054 86.45410156 82.05371094 C86.45379944 83.27467468 86.45349731 84.49563843 86.45318604 85.75360107 C86.43254089 87.06725647 86.41189575 88.38091187 86.390625 89.734375 C86.38316087 91.09628468 86.37746874 92.45820512 86.37347412 93.82012939 C86.35823092 97.39770368 86.31896181 100.97462422 86.2746582 104.55194092 C86.23367634 108.20510861 86.21523755 111.85838551 86.1953125 115.51171875 C86.15458858 122.67505578 86.07629657 129.83659966 86 137 C77.09 137 68.18 137 59 137 C59 119.84 59 102.68 59 85 C48.44 85 37.88 85 27 85 C27 102.16 27 119.32 27 137 C18.09 137 9.18 137 0 137 C0 91.79 0 46.58 0 0 Z M27 27 C27 37.23 27 47.46 27 58 C37.56 58 48.12 58 59 58 C59 47.77 59 37.54 59 27 C48.44 27 37.88 27 27 27 Z " fill="#393939" transform="translate(756,17)"/>
<path d="M0 0 C2.95528576 0.10810823 5.85023846 0.00098804 8.80371094 -0.12695312 C19.70467356 -0.23944687 28.81498469 2.65292802 37.21777344 9.73242188 C48.71432817 21.16905577 48.53874355 36.0860702 48.69482422 51.39880371 C48.69800446 55.75447951 48.63441125 60.10579649 48.54394531 64.46044922 C48.42987285 70.00060256 48.49755986 75.52159212 48.61264038 81.06108856 C49.26856066 118.04215908 49.26856066 118.04215908 39.77062988 129.94287109 C31.87683277 137.79552519 22.87362564 141.95550607 11.72546387 142.37194824 C9.77405934 142.3518105 7.82272685 142.29930173 5.87304688 142.21484375 C2.91776112 142.10673552 0.02280842 142.21385571 -2.93066406 142.34179688 C-13.83162669 142.45429062 -22.94193782 139.56191573 -31.34472656 132.48242188 C-42.84128129 121.04578798 -42.66569667 106.12877355 -42.82177734 90.81604004 C-42.82495758 86.46036424 -42.76136437 82.10904726 -42.67089844 77.75439453 C-42.55682597 72.21424119 -42.62451298 66.69325163 -42.73959351 61.15375519 C-43.39551378 24.17268467 -43.39551378 24.17268467 -33.89758301 12.27197266 C-24.22837703 2.65316325 -13.39751025 -0.58036532 0 0 Z M-13.06347656 29.60742188 C-13.06347656 56.99742188 -13.06347656 84.38742188 -13.06347656 112.60742188 C-2.50347656 112.60742188 8.05652344 112.60742188 18.93652344 112.60742188 C18.93652344 85.21742187 18.93652344 57.82742187 18.93652344 29.60742188 C8.37652344 29.60742188 -2.18347656 29.60742188 -13.06347656 29.60742188 Z " fill="#393939" transform="translate(442.0634765625,14.392578125)"/>
<path d="M0 0 C7.54746733 4.39595761 12.8525083 10.17500057 15.94628906 18.38427734 C17.88391688 27.73847403 16.92640837 35.77910811 15.94628906 45.38427734 C7.03628906 45.38427734 -1.87371094 45.38427734 -11.05371094 45.38427734 C-11.05371094 38.78427734 -11.05371094 32.18427734 -11.05371094 25.38427734 C-21.61371094 25.38427734 -32.17371094 25.38427734 -43.05371094 25.38427734 C-43.05371094 34.62427734 -43.05371094 43.86427734 -43.05371094 53.38427734 C-40.55421875 53.14064453 -38.05472656 52.89701172 -35.47949219 52.64599609 C-6.35437386 50.38688459 -6.35437386 50.38688459 5.13916016 58.81347656 C15.26671158 68.28466383 17.92201252 78.78981691 18.47827148 92.22637939 C18.62018102 104.87647906 17.51193126 118.09838361 8.82128906 127.94677734 C-2.37155653 138.25737481 -18.78873963 138.23553883 -33.19921875 137.75683594 C-44.76190933 137.05642799 -54.37334737 135.47501617 -62.92871094 127.07177734 C-69.89131735 119.14860822 -71.55999544 111.00748715 -71.30371094 100.63427734 C-70.89121094 96.59177734 -70.47871094 92.54927734 -70.05371094 88.38427734 C-61.14371094 88.38427734 -52.23371094 88.38427734 -43.05371094 88.38427734 C-43.05371094 94.98427734 -43.05371094 101.58427734 -43.05371094 108.38427734 C-32.49371094 108.38427734 -21.93371094 108.38427734 -11.05371094 108.38427734 C-11.05371094 99.14427734 -11.05371094 89.90427734 -11.05371094 80.38427734 C-13.63699219 80.61630859 -16.22027344 80.84833984 -18.88183594 81.08740234 C-48.92538149 83.24276333 -48.92538149 83.24276333 -59.95898438 75.36376953 C-69.89440519 66.12570567 -71.97119944 55.25023068 -72.51730347 42.18103027 C-72.68425163 29.35638832 -71.78831733 15.7502226 -62.92871094 5.75927734 C-48.58346325 -7.38590315 -17.12520643 -7.67367619 0 0 Z " fill="#393939" transform="translate(925.0537109375,18.61572265625)"/>
<path d="M0 0 C23.1 0 46.2 0 70 0 C70 8.91 70 17.82 70 27 C55.81 27 41.62 27 27 27 C27 36.24 27 45.48 27 55 C38.55 55 50.1 55 62 55 C62 63.91 62 72.82 62 82 C50.45 82 38.9 82 27 82 C27 91.24 27 100.48 27 110 C41.19 110 55.38 110 70 110 C70 118.91 70 127.82 70 137 C46.9 137 23.8 137 0 137 C0 91.79 0 46.58 0 0 Z " fill="#393939" transform="translate(671,17)"/>
<path d="M0 0 C23.43 0 46.86 0 71 0 C71 8.58 71 17.16 71 26 C70 27 70 27 68.24729919 27.12025452 C67.48562943 27.11803391 66.72395966 27.11581329 65.93920898 27.11352539 C65.07839218 27.11344986 64.21757538 27.11337433 63.33067322 27.11329651 C62.39526199 27.10813522 61.45985077 27.10297394 60.49609375 27.09765625 C59.54307877 27.0962413 58.59006378 27.09482635 57.60816956 27.09336853 C54.55124835 27.08775152 51.49439923 27.07519616 48.4375 27.0625 C46.37044376 27.05748719 44.30338638 27.05292391 42.23632812 27.04882812 C37.15750167 27.03862558 32.07883194 27.01905356 27 27 C27 36.24 27 45.48 27 55 C38.55 55 50.1 55 62 55 C62 63.91 62 72.82 62 82 C50.45 82 38.9 82 27 82 C27 100.15 27 118.3 27 137 C18.09 137 9.18 137 0 137 C0 91.79 0 46.58 0 0 Z " fill="#3A3A3A" transform="translate(501,17)"/>
<path d="M0 0 C23.43 0 46.86 0 71 0 C71 16 71 16 70 27 C55.81 27 41.62 27 27 27 C27 36.24 27 45.48 27 55 C38.55 55 50.1 55 62 55 C62 63.91 62 72.82 62 82 C50.45 82 38.9 82 27 82 C27 100.15 27 118.3 27 137 C18.09 137 9.18 137 0 137 C0 91.79 0 46.58 0 0 Z " fill="#3A3A3A" transform="translate(586,17)"/>
<path d="M0 0 C8.58 0 17.16 0 26 0 C26.43110458 15.05654551 26.7801268 30.11025698 26.98443127 45.17143726 C27.08187655 52.16709632 27.21434545 59.15861434 27.43334961 66.15161133 C27.64505172 72.91474934 27.75372692 79.67360999 27.80266762 86.43985558 C27.83748787 89.00659128 27.90549163 91.57312068 28.00887108 94.13801003 C28.4984853 106.80178018 28.42252722 116.73729956 19.63756275 126.54982281 C11.08154966 135.09218779 4.25420022 138.94664223 -7.9276123 139.64550781 C-8.80808228 139.59749023 -9.68855225 139.54947266 -10.59570312 139.5 C-14.69098299 139.32104328 -18.71715011 139.29366052 -22.81445312 139.421875 C-31.34310708 139.43116013 -38.29671762 138.97750289 -44.91259766 133.16210938 C-48.43258199 129.62897591 -51.58966633 125.86901181 -54.56062317 121.86541748 C-55.94723307 119.96752032 -55.94723307 119.96752032 -57.66455078 118.43040466 C-59.81843424 116.12337202 -59.33623129 113.8724216 -59.29296875 110.80078125 C-59.28547607 109.71192627 -59.2779834 108.62307129 -59.27026367 107.5012207 C-59.24295166 106.11894287 -59.21563965 104.73666504 -59.1875 103.3125 C-59.125625 98.919375 -59.06375 94.52625 -59 90 C-50.09 90 -41.18 90 -32 90 C-32 96.6 -32 103.2 -32 110 C-21.44 110 -10.88 110 0 110 C0 73.7 0 37.4 0 0 Z " fill="#353535" transform="translate(84,17)"/>
<path d="M0 0 C8.78734256 6.56984702 14.60913364 14.86726269 16.75 25.75 C17.72274019 36.71543486 16.13594156 46.52783963 9.5625 55.5625 C1.92383588 64.49585295 -6.68119098 69.74616609 -18.484375 71.12890625 C-28.77956311 71.51066562 -38.41866647 69.09644403 -46.44140625 62.44140625 C-54.16541854 55.21786992 -59.70502714 47.26347832 -60.48828125 36.46484375 C-60.72515998 24.40896292 -58.58070704 14.8398602 -50.25 5.75 C-36.76840012 -7.92192835 -16.15683952 -10.7150426 0 0 Z M-35.5625 23.625 C-38.23259696 28.56962401 -38.68337034 31.93448996 -37.1875 37.3125 C-35.26832645 42.44758598 -32.44231229 45.28854058 -27.3984375 47.59765625 C-22.63361761 49.18276565 -18.94676082 48.66829044 -14.30078125 46.87890625 C-10.45118817 44.75979692 -8.2090112 41.66802239 -6.25 37.75 C-5.72886829 32.52159666 -5.60726466 28.10963246 -7.875 23.3125 C-12.20434331 18.64136643 -15.32876026 16.51138018 -21.75 16.25 C-28.23897312 16.5141373 -31.49516575 18.56831418 -35.5625 23.625 Z " fill="#393939" transform="translate(228.25,53.25)"/>
</svg>
